<?xml version="1.0" encoding="utf-8"?>
<!-- Generator: Adobe Illustrator 22.1.0, SVG Export Plug-In . SVG Version: 6.00 Build 0)  -->
<svg version="1.1" id="Layer_1" xmlns="http://www.w3.org/2000/svg" xmlns:xlink="http://www.w3.org/1999/xlink" x="0px" y="0px"
	 width="48px" height="46.6px" viewBox="0 0 48 46.6" style="enable-background:new 0 0 48 46.6;" xml:space="preserve">
<style type="text/css">
	.st0{fill:#4F565B;}
	.st1{fill:#E18E19;}
</style>
<path class="st0" d="M21.1,25.9c0,3,1.2,5.7,3.2,8c2.3,2.7,5.7,4.9,9.3,6.6c3.6-1.7,6.9-3.9,9.3-6.6c2-2.3,3.2-5,3.2-8h0l0-12.7h-25
	L21.1,25.9L21.1,25.9L21.1,25.9z M20.6,0.3l9.6,5.5l0,0l6.1,3.5h-3.8l-3.2-1.8h0l-8.2-4.7v6.5h-1.9V2.8L11,7.5l-6.5,3.8l12.7,0v1.9
	l-12.7,0l14.7,8.5l0-9.4v-1h1H47h1v1l0,13.7h0c0,3.5-1.4,6.6-3.7,9.2c-2.6,3-6.4,5.5-10.3,7.3l-0.4,0.2l-0.4-0.2
	c-4-1.8-7.7-4.3-10.3-7.3c-0.7-0.8-1.3-1.6-1.8-2.4v11.1l5.2-3l0,0l0,0l0,0l0,0l0,0l0,0l0,0l0,0l0,0l0,0l0,0l0,0l0,0l0,0l0,0l0,0
	l0,0l0,0l0,0l0,0l0,0l0,0l0,0l0,0l0,0l0,0l0,0l0,0l0,0l0,0l0,0l0,0l0,0l0,0l0,0l0,0l0,0l0,0l0,0l0,0l0,0l0,0l0,0l0,0l0,0l0,0l0,0
	l0,0l0,0l0,0l0,0l0,0l0,0l0.1,0l0,0l0.1,0.1l0,0l0,0l0,0l0,0l0,0l0,0l0,0l0,0l0,0l0,0l0,0l0,0l0,0l0,0l0,0l-7.5,4.3l-0.5,0.3
	l-0.5-0.3l-9.6-5.5l-9.6-5.5L0,34.9v-0.6V23.3V12.2v-0.6l0.5-0.3l9.6-5.5l9.6-5.5L20.2,0L20.6,0.3L20.6,0.3z M9.6,30.5v7.7H9.5
	l1.5,0.9l8.2,4.7V25.9v-2.1l-17.3-10v9.4v10.5l1.9,1.1v-6.3h1.9V36l1.9,1.1v-6.6H9.6L9.6,30.5z"/>
<polygon class="st1" points="29.5,25.2 32.6,28.3 39.6,20.4 41.1,21.7 33.4,30.3 32.7,31.1 32,30.4 28.1,26.5 29.5,25.2 "/>
</svg>
