<?xml version="1.0" encoding="utf-8"?>
<!-- Generator: Adobe Illustrator 22.1.0, SVG Export Plug-In . SVG Version: 6.00 Build 0)  -->
<svg version="1.1" id="Layer_1" xmlns="http://www.w3.org/2000/svg" xmlns:xlink="http://www.w3.org/1999/xlink" x="0px" y="0px"
	 width="48px" height="48px" viewBox="0 0 48 48" style="enable-background:new 0 0 48 48;" xml:space="preserve">
<style type="text/css">
	.st0{fill:#4F565B;}
	.st1{fill:#E18E19;}
</style>
<path class="st0" d="M0,24.9c-0.2-5.2,1.3-10.2,4.1-14.3c2.8-4.1,6.8-7.4,11.7-9.1C22-0.8,28.6-0.3,34.1,2.3
	c4.9,2.3,9.1,6.3,11.6,11.5V5.9H48v10.3v1.1h-1.1h-9.1V15h6.1c-2.2-4.9-6-8.6-10.6-10.7c-5-2.3-11-2.8-16.6-0.7
	C12.1,5.2,8.5,8.2,6,11.9c-2.5,3.7-3.9,8.2-3.7,12.9L0,24.9L0,24.9z M0,42.1V31.8v-1.1h1.1h9.1V33H4.2c2.2,4.9,6,8.6,10.6,10.7
	c5,2.3,11,2.8,16.6,0.7c4.4-1.6,8.1-4.6,10.6-8.3c2.5-3.7,3.9-8.2,3.7-12.9l2.3-0.1c0.2,5.2-1.3,10.2-4.1,14.3
	c-2.8,4.1-6.8,7.4-11.7,9.1c-6.2,2.3-12.8,1.8-18.3-0.8c-4.9-2.3-9.1-6.3-11.6-11.5v7.9H0L0,42.1z"/>
<path class="st1" d="M34.4,26.3V14.9h-1.1h-1.1h-0.6l-0.3,0.4l-8,10.3L23,25.9v0.4v1.1v1.1h1.1h8v4.6h2.3v-4.6h2.3v-2.3H34.4z
	 M32.1,26.3h-6.6l6.6-8.4V26.3z"/>
<polygon class="st1" points="23,33.1 12.7,33.1 11.6,33.1 11.6,32 11.6,30.9 11.6,30.5 11.8,30.2 16.3,24.4 19.6,20.2 19.6,18.8 
	18,17.1 15.5,17.1 13.9,18.8 13.9,20.6 12.7,20.6 11.6,20.6 11.6,18.3 11.6,17.8 11.9,17.5 14.2,15.2 14.5,14.9 15,14.9 18.4,14.9 
	18.9,14.9 19.2,15.2 21.5,17.5 21.9,17.8 21.9,18.3 21.9,20.6 21.9,21 21.6,21.3 17.9,26.1 14.2,30.9 22.4,30.9 23,30.9 23,31.5 
	23,32 23,33.1 "/>
</svg>
