<?xml version="1.0" encoding="utf-8"?>
<!-- Generator: Adobe Illustrator 22.1.0, SVG Export Plug-In . SVG Version: 6.00 Build 0)  -->
<svg version="1.1" id="Layer_1" xmlns="http://www.w3.org/2000/svg" xmlns:xlink="http://www.w3.org/1999/xlink" x="0px" y="0px"
	 width="48px" height="40.4px" viewBox="0 0 48 40.4" style="enable-background:new 0 0 48 40.4;" xml:space="preserve">
<style type="text/css">
	.st0{fill:#FFFFFF;}
</style>
<path class="st0" d="M20.3,2.6c2.3,0,4.6,0.4,6.6,1.2l-2.6,1.5c-1.3-0.3-2.6-0.5-4-0.5c-0.8,0-1.5,0-2.2,0.1v3.3V9l-0.6,0.3
	l-4.6,2.6l0,0l-2,1.1l-0.4-1.3l-0.3-0.9l0.8-0.5l4.8-2.8V5.5C13,6.2,10.5,7.7,8.5,9.7c-3,3-4.9,7.2-4.9,11.8c0,0.9,0.1,1.8,0.2,2.6
	l1.5-0.8L6,22.8l0.6,0.6l3.1,3.1l8.9-5.1L17,19.7l-4.4,1l-0.8,0.2L11.4,20l-0.8-1.6l-3,1.7l-1.1-1.9L27.1,6.3l0,0L29.4,5l0,0L33,2.9
	h0l4.4-2.6L38,0l0.6,0.3L43,2.9h0l4.4,2.6L48,5.8v0.6v5.1v5.1v0.6l-0.6,0.3L43,20.2h0l-3.9,2.3l0,0l-2.4,1.4l0,0L27.6,29l-1.1-1.9
	l9.3-5.3L33,20.2h0l-1.7-1l2.2-1.3l0.6,0.3l0,0l2.8,1.6v-6.4l-5.6,3.2l0,0l-2.2,1.3l0,0L11.4,28.2l0,0l-2,1.1l0,0L6.6,31l0,0
	l-1.9,1.1l0,0l-3.5,2L0,32.2l3.5-2c-1.3-2.6-2.1-5.5-2.1-8.7c0-5.2,2.1-9.9,5.5-13.3C10.3,4.8,15,2.6,20.3,2.6L20.3,2.6z M7.7,27.7
	l-2.1-2.1l-1.3,0.8c0.3,0.9,0.7,1.8,1.1,2.7L7.7,27.7L7.7,27.7z M20.6,20.3L28,16v-4.5V8.3l-15.5,9l0.5,1l4.2-0.9l0.6-0.1l0.4,0.5
	L20.6,20.3L20.6,20.3z M30.2,14.7l5.6-3.2l-5.6-3.2v3.2V14.7L30.2,14.7z M31.3,6.4l6.7,3.8l6.7-3.8l-2.8-1.6l0,0L38,2.6l-3.9,2.2
	l0,0L31.3,6.4L31.3,6.4z M45.8,8.3l-6.7,3.8v7.7l2.8-1.6l0,0l3.9-2.2v-4.5V8.3L45.8,8.3z M13,29.8l3.5,3.5l0.7-3.9l0.1-0.6l0.5-0.3
	l3.3-1.7l0-1.9l2.2-1.3l0,3.8l0,0.7l-0.6,0.3l-3.4,1.7l-0.8,4.5l-0.2,0.9h-0.9h-1.1h-0.5l-0.3-0.3L11,31L13,29.8L13,29.8z M7.9,32.7
	c0.2,0.2,0.4,0.4,0.5,0.6c3,3,7.2,4.9,11.8,4.9c4.6,0,8.8-1.9,11.8-4.9c1.8-1.8,3.2-4,4-6.5l2.7-1.6c-0.7,3.7-2.6,7.1-5.2,9.7
	c-3.4,3.4-8.1,5.5-13.3,5.5c-5.2,0-9.9-2.1-13.3-5.5c-0.3-0.3-0.6-0.7-0.9-1L7.9,32.7L7.9,32.7z"/>
</svg>
