<?xml version="1.0" encoding="utf-8"?>
<!-- Generator: Adobe Illustrator 22.1.0, SVG Export Plug-In . SVG Version: 6.00 Build 0)  -->
<svg version="1.1" id="Layer_1" xmlns="http://www.w3.org/2000/svg" xmlns:xlink="http://www.w3.org/1999/xlink" x="0px" y="0px"
	 width="44.8px" height="48px" viewBox="0 0 44.8 48" style="enable-background:new 0 0 44.8 48;" xml:space="preserve">
<style type="text/css">
	.st0{fill:#FFFFFF;}
</style>
<path class="st0" d="M1.1,20.3h4.6L16,10c0,0.8,0.3,1.6,0.6,2.4l-7.9,7.9h27.4l-7.9-7.9c0.4-0.8,0.6-1.6,0.6-2.4l10.3,10.3h4.6h1.1
	v1.1v21.3v1.1h-1.1H1.1H0v-1.1V21.3v-1.1H1.1L1.1,20.3z M2.1,45.9h40.5L40.5,48H4.3L2.1,45.9L2.1,45.9z M24.5,5.9V0h2.1v9.6
	c0,1.1-0.4,2.2-1.2,3l0,0l0,0c-0.8,0.8-1.9,1.2-3,1.2c-1.1,0-2.2-0.4-3-1.2l0,0l0,0c-0.8-0.8-1.2-1.9-1.2-3V0h2.1v5.9
	c0.7-0.4,1.4-0.6,2.1-0.6C23.1,5.3,23.9,5.5,24.5,5.9L24.5,5.9z M20.9,8.1L20.9,8.1L20.9,8.1c-0.4,0.4-0.6,0.9-0.6,1.5v0
	c0,0.5,0.2,1.1,0.6,1.5l0,0l0,0c0.4,0.4,1,0.6,1.5,0.6c0.5,0,1.1-0.2,1.5-0.6l0,0l0,0c0.4-0.4,0.6-1,0.6-1.5v0
	c0-0.5-0.2-1.1-0.6-1.5l0,0l0,0c-0.4-0.4-1-0.6-1.5-0.6C21.9,7.5,21.3,7.7,20.9,8.1L20.9,8.1z M40.5,24.5v14.9h-2.1V24.5H40.5
	L40.5,24.5z M32,24.5v14.9h-2.1V24.5H32L32,24.5z M27.7,24.5v14.9h-2.1V24.5H27.7L27.7,24.5z M23.5,24.5v14.9h-2.1V24.5H23.5
	L23.5,24.5z M19.2,24.5v14.9h-2.1V24.5H19.2L19.2,24.5z M14.9,24.5v14.9h-2.1V24.5H14.9L14.9,24.5z M10.7,24.5v14.9H8.5V24.5H10.7
	L10.7,24.5z M42.7,22.4H2.1v19.2h40.5V22.4L42.7,22.4z"/>
</svg>
