<?xml version="1.0" encoding="utf-8"?>
<!-- Generator: Adobe Illustrator 22.1.0, SVG Export Plug-In . SVG Version: 6.00 Build 0)  -->
<svg version="1.1" id="Layer_1" xmlns="http://www.w3.org/2000/svg" xmlns:xlink="http://www.w3.org/1999/xlink" x="0px" y="0px"
	 width="48px" height="47.6px" viewBox="0 0 48 47.6" style="enable-background:new 0 0 48 47.6;" xml:space="preserve">
<style type="text/css">
	.st0{fill:#FFFFFF;}
</style>
<path class="st0" d="M34.3,17.9c3.4,0,5.5-1.5,6.3-3.5c0.5-1.1,0.6-2.4,0.4-3.7c-0.2-1.2-0.8-2.4-1.7-3.4c-1.7-1.7-4.4-2.4-8.2-1.1
	l-0.9,0.3l-0.5-0.8c-0.4-0.7-1.4-1.7-3.1-2.5c-1.2-0.6-2.6-1-4.3-1c-3.3,0-5.8,0.9-7.6,2.3c-2,1.5-3,3.6-3,5.7v1.1h-1.1
	c-2.5,0-4.6,0.8-6,2.1v0c-1.4,1.3-2.2,3.2-2.2,5.5c0,2.2,0.8,3.7,1.8,4.8v0c1.5,1.5,3.5,2,5,2v2.3c-2,0-4.7-0.8-6.6-2.7l0,0
	C1,24,0,21.9,0,19c0-2.9,1.1-5.4,3-7.1l0,0c1.6-1.5,3.9-2.4,6.5-2.6c0.3-2.4,1.6-4.7,3.8-6.4c2.2-1.7,5.2-2.8,9-2.8
	c2.1,0,3.8,0.5,5.3,1.2C29.2,2,30.4,3,31.1,3.8c4.3-1.3,7.7-0.2,9.8,1.9c1.2,1.2,2,2.9,2.3,4.5c0.3,1.7,0.1,3.5-0.5,5
	c-1.2,2.7-3.9,4.9-8.4,4.9V17.9L34.3,17.9z M4.5,35h14.9v2.3H4.5V35L4.5,35z M11.4,28.1V19v-1.1h1.1H16h0.7l0.3,0.6l3.1,6.2h4.4
	l-6.2-14.4l-0.7-1.6h1.7H24h0.6l0.3,0.5l10,15.5h5.9c2.4,0,4.1,0.7,5.3,1.8c1.4,1.3,2,3.1,2,5.1v1.1h-1.1h-12l-10,14.4l-0.3,0.5H24
	h-4.6h-1.8l0.7-1.6l6.1-13.2H2.2v-2.3h24h1.8l-0.7,1.6l-6.1,13.2h2.2l10-14.4l0.3-0.5h0.6h11.3c-0.2-0.9-0.5-1.7-1.1-2.3
	c-0.8-0.7-2-1.2-3.7-1.2h-6.5h-0.6l-0.3-0.5L23.4,11h-2.2l6.2,14.4L28,27h-1.7h-6.9h-0.7l-0.3-0.6l-3.1-6.2h-1.6v8H11.4L11.4,28.1z"
	/>
</svg>
