<?xml version="1.0" encoding="utf-8"?>
<!-- Generator: Adobe Illustrator 22.1.0, SVG Export Plug-In . SVG Version: 6.00 Build 0)  -->
<svg version="1.1" id="Layer_1" xmlns="http://www.w3.org/2000/svg" xmlns:xlink="http://www.w3.org/1999/xlink" x="0px" y="0px"
	 width="48px" height="36.8px" viewBox="0 0 48 36.8" style="enable-background:new 0 0 48 36.8;" xml:space="preserve">
<style type="text/css">
	.st0{fill:#FFFFFF;}
</style>
<path class="st0" d="M5.1,26.6c1.4,0,2.7,0.6,3.6,1.5l0,0c0.9,0.9,1.5,2.2,1.5,3.6c0,0.3,0,0.7-0.1,1h10.3v2H9.2
	c-0.1,0.2-0.3,0.4-0.5,0.5c-0.9,0.9-2.2,1.5-3.6,1.5c-1.4,0-2.7-0.6-3.6-1.5l0,0C0.6,34.3,0,33.1,0,31.7c0-1.4,0.6-2.7,1.5-3.6l0,0
	l0,0C2.4,27.1,3.7,26.6,5.1,26.6L5.1,26.6z M38.8,16.3H47h1v1v8.2v1h-1h-8.2h-1v-1v-8.2v-1H38.8L38.8,16.3z M46,18.4h-6.1v6.1H46
	V18.4L46,18.4z M15.3,14.3V4.1h2V15l5.6,7.5h4.4L23.7,2H12.3v10.2h-2V1V0h1h13.3h0.8l0.2,0.8l3.9,21.7c1.6,0.2,3.1,0.9,4.2,2h0
	l0.1,0.1V5.1h2v23.5h7.1v2h-7.2c-0.2,1.6-1,3-2,4l0,0c-1.3,1.3-3.1,2.1-5.1,2.1c-2,0-3.8-0.8-5.1-2.1v0c-1.3-1.3-2.1-3.1-2.1-5.1
	c0-2,0.8-3.8,2.1-5.1l0.1-0.1h-1.1H22l-0.3-0.4l-5.8-7.8H3.5L2,17.8v3.7h7.1v2H2v3.1H0v-4.1v-1v-4.1v-0.4l0.3-0.3l2-2l0.3-0.3h0.4
	H15.3L15.3,14.3z M5.1,30.6c0.6,0,1,0.5,1,1c0,0.6-0.5,1-1,1c-0.6,0-1-0.5-1-1C4.1,31.1,4.5,30.6,5.1,30.6L5.1,30.6z M31.7,29.6
	c0,0.8-0.3,1.6-0.9,2.2l0,0c-0.6,0.6-1.3,0.9-2.2,0.9s-1.6-0.3-2.2-0.9h0c-0.6-0.6-0.9-1.3-0.9-2.2c0-0.8,0.3-1.6,0.9-2.2l0,0
	c0.6-0.6,1.3-0.9,2.2-0.9v2c-0.3,0-0.5,0.1-0.7,0.3l0,0c-0.2,0.2-0.3,0.4-0.3,0.7c0,0.3,0.1,0.5,0.3,0.7l0,0
	c0.2,0.2,0.4,0.3,0.7,0.3c0.3,0,0.5-0.1,0.7-0.3l0,0c0.2-0.2,0.3-0.4,0.3-0.7H31.7L31.7,29.6z M32.2,26c-0.9-0.9-2.2-1.5-3.6-1.5
	c-1.4,0-2.7,0.6-3.6,1.5c-0.9,0.9-1.5,2.2-1.5,3.6c0,1.4,0.6,2.7,1.5,3.6l0,0c0.9,0.9,2.2,1.5,3.6,1.5c1.4,0,2.7-0.6,3.6-1.5
	c0.9-0.9,1.5-2.2,1.5-3.6C33.7,28.2,33.1,26.9,32.2,26L32.2,26L32.2,26z M7.3,29.5c-0.6-0.6-1.3-0.9-2.2-0.9c-0.8,0-1.6,0.3-2.2,0.9
	l0,0C2.4,30,2,30.8,2,31.7c0,0.8,0.3,1.6,0.9,2.2v0c0.6,0.6,1.3,0.9,2.2,0.9c0.8,0,1.6-0.3,2.2-0.9c0.6-0.6,0.9-1.3,0.9-2.2
	C8.2,30.8,7.8,30,7.3,29.5L7.3,29.5L7.3,29.5z"/>
</svg>
