<?xml version="1.0" encoding="utf-8"?>
<!-- Generator: Adobe Illustrator 22.1.0, SVG Export Plug-In . SVG Version: 6.00 Build 0)  -->
<svg version="1.1" id="Layer_1" xmlns="http://www.w3.org/2000/svg" xmlns:xlink="http://www.w3.org/1999/xlink" x="0px" y="0px"
	 width="48px" height="37.2px" viewBox="0 0 48 37.2" style="enable-background:new 0 0 48 37.2;" xml:space="preserve">
<style type="text/css">
	.st0{fill:#FFFFFF;}
</style>
<path class="st0" d="M1,28.4v-2h45v-6.2l-4.1-1.6H31.3v5.9h-2v-6.8v-1v-5.9h2v5.9h9.4l-2.3-7.8h-8h-1v-1V2H3.9V0l26.4,0l1,0v1v5.9
	h7.8h0.7L40,7.6l2.8,9.3l4.5,1.8l0.6,0.2v0.7l0.1,7.8v1h-1H1L1,28.4z M17.6,22.5v2H5.9v-2H17.6L17.6,22.5z M11.5,30.3v2H8.6
	c0,0.8,0.4,1.6,0.9,2.1c0.6,0.6,1.3,0.9,2.1,0.9s1.6-0.4,2.1-0.9l0,0c0.6-0.6,0.9-1.3,0.9-2.1v-2h24.5v2H36c0,0.8,0.4,1.6,0.9,2.1
	c0.6,0.6,1.3,0.9,2.1,0.9s1.6-0.4,2.1-0.9l0,0c0.6-0.6,0.9-1.3,0.9-2.1v-2h5.9v2H44c0,1.3-0.5,2.6-1.4,3.5l0,0
	c-0.9,0.9-2.2,1.4-3.5,1.4c-1.4,0-2.6-0.5-3.5-1.4c-0.9-0.9-1.4-2.1-1.4-3.5H16.6c0,1.4-0.5,2.6-1.4,3.5l0,0
	c-0.9,0.9-2.2,1.4-3.5,1.4c-1.4,0-2.6-0.5-3.5-1.4s-1.4-2.1-1.4-3.5H2.9v-2h8.8H11.5z M18.6,10.8v2H4.9v-2H18.6L18.6,10.8z
	 M15.7,6.8v2H0l0-2H15.7L15.7,6.8z"/>
</svg>
