<?xml version="1.0" encoding="utf-8"?>
<!-- Generator: Adobe Illustrator 22.1.0, SVG Export Plug-In . SVG Version: 6.00 Build 0)  -->
<svg version="1.1" id="Layer_1" xmlns="http://www.w3.org/2000/svg" xmlns:xlink="http://www.w3.org/1999/xlink" x="0px" y="0px"
	 width="417.1px" height="85.4px" viewBox="0 0 417.1 85.4" style="enable-background:new 0 0 417.1 85.4;" xml:space="preserve">
<style type="text/css">
	.st0{fill:#FFFFFF;}
	.st1{fill-rule:evenodd;clip-rule:evenodd;fill:#E18E19;}
</style>
<polygon class="st0" points="213,20.4 213,63.9 259.8,63.9 259.8,51.5 229.6,51.5 229.6,20.4 213,20.4 "/>
<polygon class="st0" points="374.2,63.9 374.2,44.4 395.4,63.9 417.1,63.9 390.9,40.2 416.3,20.4 395.6,20.4 374.2,37.6 374.2,20.4 
	357.6,20.4 357.6,63.9 374.2,63.9 "/>
<polygon class="st0" points="289.9,20.4 289.9,63.9 306.4,63.9 306.4,37.6 333.6,63.9 350.2,63.9 350.2,20.4 333.7,20.4 333.7,45.1 
	308.5,20.4 289.9,20.4 "/>
<polygon class="st0" points="282.5,20.4 266,20.4 266,63.9 282.5,63.9 282.5,20.4 "/>
<polygon class="st0" points="67.7,20.4 67.7,63.9 116.3,63.9 116.3,53 84.1,53 84.1,47.1 115.2,47.1 115.2,36.5 84.1,36.5 
	84.1,31.1 115.8,31.1 115.8,20.4 67.7,20.4 "/>
<polygon class="st0" points="0,20.4 0,63.9 16.5,63.9 16.5,37.6 43.7,63.9 60.3,63.9 60.3,20.4 43.8,20.4 43.8,45.1 18.6,20.4 
	0,20.4 "/>
<path class="st1" d="M132.7,15.9l26.4-14.6c3.1-1.7,8.3-1.7,11.5,0L197,15.9c3.1,1.7,3.1,4.6,0,6.3l-26.4,14.6
	c-3.1,1.7-8.3,1.7-11.5,0l-26.4-14.6C129.5,20.4,129.5,17.6,132.7,15.9L132.7,15.9z"/>
<path class="st1" d="M132.7,15.9l26.4-14.6c3.1-1.7,8.3-1.7,11.5,0L197,15.9c4.8,2.6,4.7,3.7,0,6.3l-26.4,14.6
	c-3.1,1.7-8.3,1.7-11.5,0l-26.4-14.6C127.1,19.1,127.1,18.9,132.7,15.9L132.7,15.9z"/>
<path class="st1" d="M133.7,28.5c3.3,1.8,6.5,3.6,9.8,5.5c3.3,1.8,6.6,3.7,10,5.5c7.1,4,8.9,6.2,8.9,14c0,6.5,0-1.4-0.1,5.1
	c0,6.5,0,13.1-0.1,19.6c0,4.9-4,6.5-8.9,3.6c-3.3-2-6.6-3.9-9.9-5.9c-3.3-1.9-6.5-3.9-9.8-5.8c-6.9-4-8.5-6.8-8.5-13.8
	c0-6.4,0-2.9,0-9.3c0-6.4,0-8.1,0-14.5C125.1,27.7,129,25.8,133.7,28.5L133.7,28.5z M196,28.5c-3.3,1.8-6.5,3.6-9.8,5.5
	c-3.3,1.8-6.6,3.7-10,5.5c-7.1,4-8.9,6.2-8.9,14c0,6.5,0-1.4,0.1,5.1c0,6.5,0,13.1,0.1,19.6c0,4.9,4,6.5,8.9,3.6
	c3.3-2,6.6-3.9,9.9-5.9c3.3-1.9,6.5-3.9,9.8-5.8c6.9-4,8.5-6.8,8.5-13.8c0-6.4,0-2.9,0-9.3c0-6.4,0-8.1,0-14.5
	C204.5,27.7,200.7,25.8,196,28.5L196,28.5z"/>
<path class="st1" d="M196,28.5c-3.2,1.9-6.5,3.6-9.8,5.5c-3.3,1.8-6.6,3.7-10,5.5c-7.1,4-8.9,6.2-8.9,14c0,6.5,0-1.4,0.1,5.1
	c0,6.5,0,13.1,0.1,19.6c0,8.9,0.1,8.9,8.9,3.6c3.3-2,6.6-3.9,9.9-5.9c3.3-1.9,6.5-3.9,9.8-5.8c8.6-4.9,8.5-5,8.5-13.8
	c0-6.4,0-2.9,0-9.3c0-6.4,0-8.1,0-14.5C204.5,23.2,204.6,23.5,196,28.5L196,28.5z"/>
<path class="st1" d="M133.7,28.5c3.2,1.9,6.5,3.6,9.8,5.5c3.3,1.8,6.6,3.7,10,5.5c7.1,4,8.9,6.2,8.9,14c0,6.5,0-1.4-0.1,5.1
	c0,6.5,0,13.1-0.1,19.6c0,9,0,8.9-8.9,3.6c-3.3-2-6.6-3.9-9.9-5.9c-3.3-1.9-6.5-3.9-9.8-5.8c-8.5-4.9-8.5-5-8.5-13.8
	c0-6.4,0-2.9,0-9.3c0-6.4,0-8.1,0-14.5C125.1,23.5,125.1,23.5,133.7,28.5L133.7,28.5z"/>
<path class="st0" d="M182.7,30l-1.4,0.8c-0.1-0.2-0.3-0.4-0.4-0.6l1.3-1C182.3,29.5,182.5,29.8,182.7,30L182.7,30z M175.7,33.9
	l-1,0.6c-0.3-0.4-0.7-0.8-1.1-1.2l0.8-0.8C174.9,32.9,175.3,33.4,175.7,33.9L175.7,33.9z M155,34.5l-1.1-0.6c0.5-0.6,1-1.2,1.6-1.7
	l0.8,0.9C155.8,33.5,155.4,34,155,34.5L155,34.5z M148.4,30.8L147,30c0.4-0.6,0.9-1.2,1.4-1.8l1.2,1.1
	C149.1,29.8,148.8,30.3,148.4,30.8L148.4,30.8z M141.5,27l-1.6-0.9l0.1-0.2l1.5,1L141.5,27L141.5,27z M189.6,25.8
	c-0.3-0.5-0.7-1-1.1-1.5l-1.4,1.1c0.3,0.5,0.7,0.9,1,1.4L189.6,25.8L189.6,25.8z M187.4,22.9c-0.4-0.5-0.8-0.9-1.2-1.3l-1.3,1.2
	c0.4,0.4,0.8,0.8,1.2,1.3L187.4,22.9L187.4,22.9z M184.8,20.3c-0.5-0.4-0.9-0.8-1.4-1.2l-1.1,1.4c0.4,0.4,0.9,0.7,1.3,1.1
	L184.8,20.3L184.8,20.3z M181.9,18c-0.5-0.4-1-0.7-1.5-1l-0.9,1.5c0.5,0.3,1,0.6,1.4,0.9L181.9,18L181.9,18z M178.8,16.1
	c-0.5-0.3-1.1-0.6-1.6-0.8l-0.7,1.6c0.5,0.2,1,0.5,1.5,0.8L178.8,16.1L178.8,16.1z M175.5,14.6c-0.6-0.2-1.1-0.4-1.7-0.6l-0.5,1.7
	c0.5,0.2,1.1,0.4,1.6,0.6L175.5,14.6L175.5,14.6z M172,13.5c-0.6-0.1-1.2-0.3-1.8-0.4l-0.3,1.7c0.6,0.1,1.1,0.2,1.7,0.4L172,13.5
	L172,13.5z M168.4,12.8c-0.6-0.1-1.2-0.1-1.8-0.2l-0.1,1.8c0.6,0,1.1,0.1,1.7,0.2L168.4,12.8L168.4,12.8z M164.8,12.6
	c-0.6,0-1.2,0-1.8,0.1l0.1,1.8c0.6,0,1.1-0.1,1.7-0.1L164.8,12.6L164.8,12.6z M161.1,12.8c-0.6,0.1-1.2,0.2-1.8,0.3l0.3,1.7
	c0.6-0.1,1.1-0.2,1.7-0.3L161.1,12.8L161.1,12.8z M157.5,13.5c-0.6,0.2-1.2,0.3-1.8,0.5l0.5,1.7c0.5-0.2,1.1-0.3,1.6-0.5L157.5,13.5
	L157.5,13.5z M154.1,14.6c-0.6,0.2-1.1,0.5-1.7,0.7l0.8,1.6c0.5-0.2,1-0.5,1.6-0.7L154.1,14.6L154.1,14.6z M150.7,16.2
	c-0.5,0.3-1.1,0.6-1.6,0.9l0.9,1.5c0.5-0.3,1-0.6,1.5-0.9L150.7,16.2L150.7,16.2z M147.6,18.1c-0.5,0.3-1,0.7-1.5,1.1l1.1,1.4
	c0.4-0.4,0.9-0.7,1.4-1L147.6,18.1L147.6,18.1z M144.8,20.4c-0.4,0.4-0.9,0.9-1.3,1.3l1.3,1.2c0.4-0.4,0.8-0.8,1.2-1.2L144.8,20.4
	L144.8,20.4z M142.3,23c-0.4,0.5-0.8,0.9-1.1,1.4l1.4,1.1c0.3-0.5,0.7-0.9,1.1-1.3L142.3,23L142.3,23z M151,27.8
	c0.5-0.5,1-0.9,1.6-1.4l-1-1.3c-0.6,0.5-1.2,1-1.7,1.5L151,27.8L151,27.8z M154.3,25.2c0.6-0.4,1.2-0.7,1.9-1l-0.7-1.5
	c-0.7,0.3-1.3,0.7-2,1.1L154.3,25.2L154.3,25.2z M158.2,23.4c0.7-0.2,1.3-0.4,2-0.6l-0.4-1.6c-0.7,0.2-1.5,0.4-2.2,0.6L158.2,23.4
	L158.2,23.4z M162.3,22.4c0.7-0.1,1.4-0.1,2.1-0.2l0-1.6c-0.8,0-1.5,0.1-2.3,0.2L162.3,22.4L162.3,22.4z M166.5,22.3
	c0.7,0,1.4,0.2,2.1,0.3l0.3-1.6c-0.7-0.1-1.5-0.3-2.3-0.3L166.5,22.3L166.5,22.3z M170.6,23.1c0.7,0.2,1.3,0.4,2,0.7l0.6-1.5
	c-0.7-0.3-1.4-0.6-2.1-0.8L170.6,23.1L170.6,23.1z M174.5,24.7c0.6,0.3,1.2,0.7,1.8,1.1l0.9-1.3c-0.6-0.4-1.3-0.8-1.9-1.2
	L174.5,24.7L174.5,24.7z M178,27.2c0.5,0.5,1,1,1.5,1.5l1.2-1.1c-0.5-0.6-1.1-1.1-1.6-1.6L178,27.2L178,27.2z M157.5,32.1
	c3.2-2.3,7.3-3,11.1-1.8c1.3,0.4,2.8,1.1,3.9,2l0.7-0.9c-1.3-1-2.7-1.7-4.2-2.2c-4.2-1.3-8.6-0.6-12.1,2L157.5,32.1L157.5,32.1z"/>
<path class="st0" d="M175.2,49.4c-1.9,2.8-4.8,4.6-7.9,5.2l0,1.2l0,0c0,0,0,0,0,0c3.5-0.6,6.7-2.7,8.9-5.8L175.2,49.4L175.2,49.4z
	 M185.1,34.6l-1.4,0.8c0.1,0.2,0.1,0.3,0.2,0.5l1.5-0.5C185.3,35.1,185.2,34.8,185.1,34.6L185.1,34.6z M178.1,38.5l-1.1,0.6
	c0.6,2.2,0.6,4.7-0.2,7c-0.2,0.7-0.5,1.4-0.8,2l1.1,0.5c0.4-0.7,0.7-1.4,0.9-2.2C178.8,43.8,178.8,41,178.1,38.5L178.1,38.5z
	 M167.4,70.1l0,1.8c0.4,0,0.7-0.1,1.1-0.1l-0.2-1.8C168,70.1,167.7,70.1,167.4,70.1L167.4,70.1z M170.3,71.5
	c0.6-0.1,1.2-0.2,1.8-0.4l-0.4-1.7c-0.6,0.1-1.1,0.3-1.7,0.4L170.3,71.5L170.3,71.5z M173.8,70.7c0.6-0.2,1.2-0.4,1.7-0.6l-0.6-1.7
	c-0.5,0.2-1.1,0.4-1.6,0.6L173.8,70.7L173.8,70.7z M177.2,69.3c0.6-0.3,1.1-0.5,1.6-0.8L178,67c-0.5,0.3-1,0.5-1.5,0.8L177.2,69.3
	L177.2,69.3z M180.4,67.6c0.5-0.3,1-0.7,1.5-1l-1-1.4c-0.5,0.3-0.9,0.6-1.4,0.9L180.4,67.6L180.4,67.6z M183.4,65.5
	c0.5-0.4,0.9-0.8,1.4-1.2l-1.2-1.3c-0.4,0.4-0.9,0.8-1.3,1.1L183.4,65.5L183.4,65.5z M186.1,63.1c0.4-0.4,0.8-0.9,1.2-1.3l-1.3-1.2
	c-0.4,0.4-0.8,0.9-1.2,1.3L186.1,63.1L186.1,63.1z M188.5,60.3c0.4-0.5,0.7-1,1.1-1.5l-1.5-1c-0.3,0.5-0.7,0.9-1,1.4L188.5,60.3
	L188.5,60.3z M190.6,57.2c0.3-0.5,0.6-1.1,0.9-1.6l-1.6-0.8c-0.3,0.5-0.5,1-0.8,1.5L190.6,57.2L190.6,57.2z M192.2,54
	c0.2-0.6,0.5-1.1,0.7-1.7l-1.7-0.6c-0.2,0.5-0.4,1.1-0.6,1.6L192.2,54L192.2,54z M193.4,50.5c0.2-0.6,0.3-1.2,0.5-1.8l-1.7-0.4
	c-0.1,0.6-0.3,1.1-0.4,1.7L193.4,50.5L193.4,50.5z M194.2,47c0.1-0.6,0.2-1.2,0.2-1.8l-1.8-0.2c-0.1,0.6-0.1,1.1-0.2,1.7L194.2,47
	L194.2,47z M194.6,43.3c0-0.6,0-1.2,0-1.8l-1.8,0.1c0,0.6,0,1.1,0,1.7L194.6,43.3L194.6,43.3z M194.5,39.7c-0.1-0.6-0.1-1.2-0.2-1.8
	l-1.8,0.3c0.1,0.6,0.1,1.1,0.2,1.7L194.5,39.7L194.5,39.7z M193.9,36.1c-0.1-0.6-0.3-1.2-0.4-1.8l-1.7,0.5c0.2,0.6,0.3,1.1,0.4,1.7
	L193.9,36.1L193.9,36.1z M192.9,32.5c-0.2-0.6-0.4-1.1-0.7-1.7l-1.6,0.7c0.2,0.5,0.4,1.1,0.6,1.6L192.9,32.5L192.9,32.5z
	 M184.4,37.9c0.1,0.7,0.3,1.4,0.4,2.1l1.6-0.2c-0.1-0.8-0.2-1.5-0.4-2.3L184.4,37.9L184.4,37.9z M184.9,42.1c0,0.7,0,1.4-0.1,2.1
	l1.6,0.2c0.1-0.8,0.1-1.5,0.1-2.3L184.9,42.1L184.9,42.1z M184.5,46.3c-0.1,0.7-0.3,1.4-0.5,2l1.5,0.5c0.2-0.7,0.4-1.5,0.6-2.2
	L184.5,46.3L184.5,46.3z M183.2,50.3c-0.3,0.6-0.6,1.3-0.9,1.9l1.4,0.8c0.4-0.7,0.7-1.4,1-2L183.2,50.3L183.2,50.3z M181.1,54
	c-0.4,0.6-0.9,1.1-1.3,1.6l1.2,1.1c0.5-0.6,1-1.2,1.4-1.8L181.1,54L181.1,54z M178.3,57.1c-0.5,0.5-1.1,0.9-1.6,1.3l1,1.3
	c0.6-0.4,1.2-0.9,1.8-1.4L178.3,57.1L178.3,57.1z M174.9,59.6c-0.6,0.4-1.2,0.7-1.9,1l0.7,1.5c0.7-0.3,1.4-0.7,2-1L174.9,59.6
	L174.9,59.6z M171.1,61.4c-0.7,0.2-1.3,0.4-2,0.5l0.3,1.6c0.7-0.2,1.5-0.4,2.2-0.6L171.1,61.4L171.1,61.4z"/>
<path class="st0" d="M162.4,54.6c-0.4-0.1-0.9-0.2-1.3-0.3c-2.8-0.9-5.3-2.7-6.8-5.2l-1,0.6c1.8,2.8,4.4,4.7,7.5,5.7
	c0.5,0.2,1.1,0.3,1.6,0.4c0,0,0,0,0,0l0,0L162.4,54.6L162.4,54.6z M137.5,30.6l1.2,0.7l-1.2-0.5L137.5,30.6L137.5,30.6z M151.6,38.5
	l1.1,0.6c-0.8,2.9-0.5,6,0.8,8.7l-1.1,0.5C150.9,45.3,150.7,41.7,151.6,38.5L151.6,38.5z M162.3,62.2l0,1.6c-0.3,0-0.7-0.1-1-0.1
	l0.3-1.6C161.8,62.1,162,62.2,162.3,62.2L162.3,62.2z M136.8,32.5c-0.2,0.6-0.4,1.2-0.6,1.7l1.7,0.5c0.2-0.6,0.3-1.1,0.5-1.6
	L136.8,32.5L136.8,32.5z M135.8,36c-0.1,0.6-0.2,1.2-0.3,1.8l1.8,0.3c0.1-0.6,0.2-1.1,0.3-1.7L135.8,36L135.8,36z M135.3,39.6
	c-0.1,0.6-0.1,1.2-0.1,1.8l1.8,0c0-0.6,0.1-1.1,0.1-1.7L135.3,39.6L135.3,39.6z M135.1,43.2c0,0.6,0.1,1.2,0.1,1.8l1.8-0.2
	c0-0.6-0.1-1.1-0.1-1.7L135.1,43.2L135.1,43.2z M135.5,46.9c0.1,0.6,0.2,1.2,0.3,1.8l1.7-0.4c-0.1-0.6-0.2-1.1-0.3-1.7L135.5,46.9
	L135.5,46.9z M136.3,50.5c0.2,0.6,0.4,1.2,0.6,1.7l1.7-0.6c-0.2-0.5-0.4-1.1-0.5-1.6L136.3,50.5L136.3,50.5z M137.5,53.9
	c0.2,0.6,0.5,1.1,0.8,1.7l1.6-0.8c-0.3-0.5-0.5-1-0.7-1.6L137.5,53.9L137.5,53.9z M139.1,57.2c0.3,0.5,0.6,1.1,1,1.6l1.5-1
	c-0.3-0.5-0.6-1-0.9-1.5L139.1,57.2L139.1,57.2z M141.1,60.2c0.4,0.5,0.8,1,1.1,1.4l1.3-1.2c-0.4-0.4-0.7-0.9-1.1-1.3L141.1,60.2
	L141.1,60.2z M143.5,63c0.4,0.4,0.9,0.9,1.3,1.3L146,63c-0.4-0.4-0.8-0.8-1.2-1.2L143.5,63L143.5,63z M146.2,65.5
	c0.5,0.4,1,0.7,1.5,1.1l1-1.4c-0.5-0.3-0.9-0.7-1.4-1L146.2,65.5L146.2,65.5z M149.2,67.6c0.5,0.3,1,0.6,1.6,0.9l0.8-1.6
	c-0.5-0.2-1-0.6-1.5-0.9L149.2,67.6L149.2,67.6z M152.4,69.3c0.5,0.3,1.1,0.5,1.7,0.7l0.6-1.7c-0.5-0.2-1.1-0.4-1.6-0.7L152.4,69.3
	L152.4,69.3z M155.8,70.6c0.6,0.2,1.2,0.3,1.8,0.5l0.4-1.7c-0.6-0.1-1.1-0.3-1.6-0.5L155.8,70.6L155.8,70.6z M159.4,71.5
	c0.6,0.1,1.2,0.2,1.8,0.3l0.2-1.8c-0.6-0.1-1.1-0.2-1.7-0.3L159.4,71.5L159.4,71.5z M159.5,61.6c-0.7-0.2-1.3-0.4-2-0.7l-0.6,1.5
	c0.7,0.3,1.5,0.5,2.2,0.7L159.5,61.6L159.5,61.6z M155.6,60.1c-0.6-0.3-1.2-0.7-1.8-1.1l-0.9,1.3c0.6,0.4,1.3,0.8,2,1.2L155.6,60.1
	L155.6,60.1z M152,57.7c-0.5-0.4-1.1-0.9-1.6-1.4l-1.2,1.1c0.5,0.5,1.1,1.1,1.7,1.6L152,57.7L152,57.7z M149.1,54.7
	c-0.4-0.5-0.9-1.1-1.2-1.7l-1.4,0.9c0.4,0.6,0.8,1.3,1.3,1.9L149.1,54.7L149.1,54.7z M146.8,51.1c-0.3-0.6-0.6-1.3-0.8-1.9l-1.5,0.6
	c0.3,0.7,0.6,1.4,0.9,2.1L146.8,51.1L146.8,51.1z M145.4,47.2c-0.2-0.7-0.3-1.4-0.4-2.1l-1.6,0.2c0.1,0.8,0.2,1.5,0.4,2.2
	L145.4,47.2L145.4,47.2z M144.8,43c0-0.7,0-1.4,0-2.1l-1.6-0.1c-0.1,0.7-0.1,1.6,0,2.3L144.8,43L144.8,43z M145.1,38.8
	c0.1-0.7,0.3-1.4,0.5-2.1l-1.6-0.5c-0.2,0.7-0.4,1.5-0.5,2.2L145.1,38.8L145.1,38.8z"/>
</svg>
