<?xml version="1.0" encoding="utf-8"?>
<!-- Generator: Adobe Illustrator 22.1.0, SVG Export Plug-In . SVG Version: 6.00 Build 0)  -->
<svg version="1.1" id="Capa_1" xmlns="http://www.w3.org/2000/svg" xmlns:xlink="http://www.w3.org/1999/xlink" x="0px" y="0px"
	 width="485.8px" height="362.9px" viewBox="0 0 485.8 362.9" style="enable-background:new 0 0 485.8 362.9;" xml:space="preserve"
	>
<style type="text/css">
	.st0{fill:#E18E19;}
</style>
<g>
	<rect x="15.8" y="342.9" class="st0" width="460" height="20"/>
	<path class="st0" d="M468.8,27.9c-33.4-19.5-71.4-9.1-97.3,3l-77.4,36.1L161,0L81.8,3.4l109.9,111.4l-70,33.3l-72.9-27.7L0,143.1
		l44.1,54.7c-4.7,5.6-8.9,13.4-5,21.6c5,10.7,19.8,16.1,44.1,16.1c5,0,10.4-0.2,16.1-0.7c26.6-2.1,55.5-8.9,73.6-17.3l276.6-129
		c23.9-11.1,35.8-22.8,36.4-35.8C486.1,46.1,483.4,36.4,468.8,27.9z"/>
</g>
</svg>
