<?xml version="1.0" encoding="utf-8"?>
<!-- Generator: Adobe Illustrator 22.1.0, SVG Export Plug-In . SVG Version: 6.00 Build 0)  -->
<svg version="1.1" id="Layer_1" xmlns="http://www.w3.org/2000/svg" xmlns:xlink="http://www.w3.org/1999/xlink" x="0px" y="0px"
	 width="253.8px" height="100px" viewBox="0 0 253.8 100" style="enable-background:new 0 0 253.8 100;" xml:space="preserve">
<style type="text/css">
	.st0{fill:#E18E19;}
	.st1{fill:#D2BEA2;}
</style>
<path class="st0" d="M87.3,59.4v-4.8c0-3.1-1.7-3.4-6.4-3.4c-4.8,0-6.3,0.3-6.4,3.4v4.8c0.1,3.2,1.7,3.5,6.4,3.5
	C85.6,62.8,87.3,62.5,87.3,59.4 M65,60v-6c0-6.5,6.6-7.8,15.9-7.8c9.3,0,15.9,1.2,15.9,7.8v6c0,6.5-6.6,7.8-15.9,7.8
	C71.5,67.7,65,66.5,65,60"/>
<path class="st0" d="M121.8,53c-0.2-2.1-3.2-2.1-5.9-2.1c-6.6,0-6.8,1.2-6.9,4.7V59c0,3.8,2.1,4.1,6.9,4.1c4.7,0,5.9-0.6,5.9-3.6
	h-6.3v-3.9h15.6v3.7c0,7.1-2.9,8.4-15.2,8.4c-10.8,0-16.3-1.1-16.3-8v-5.5c0-7,6.2-8,16.3-8c8.9,0,15.2,0,15.2,6.7H121.8z"/>
<polygon class="st0" points="144.5,55.2 158.5,55.2 158.5,59.8 144.5,59.8 144.5,67.6 135.3,67.6 135.3,46.4 159.7,46.4 159.7,51 
	144.5,51 "/>
<path class="st0" d="M179.8,57c3.9,0,3.8-0.9,3.8-3.3c0-1.9-0.8-2.4-3.8-2.4h-7.1V57H179.8z M163.6,46.4h17.6
	c7.9,0.1,11.8,1.1,11.8,6.4c0,3.5,0,5.6-6.5,6.5v0.2c3.7,0.1,6.2,1.4,6.2,3.8v4.3h-9.1v-3c0.1-1.6-1-2.6-3.7-2.6h-7.1v5.6h-9.1V46.4
	z"/>
<polygon class="st0" points="207,54.9 221.6,54.9 221.6,58.8 207,58.8 207,62.9 222.9,62.9 222.9,67.6 197.8,67.6 197.8,46.4 
	222.5,46.4 222.5,51 207,51 "/>
<polygon class="st0" points="243.8,67.6 234.7,67.6 234.7,51.3 225.9,51.3 225.9,46.4 253.1,46.4 253.1,51.3 243.8,51.3 "/>
<path class="st0" d="M23.8,49.9C44.4,34.1,79.6,0,79.6,0c-9.1,28.8-33.2,54.6-40.5,61.7c-7.3,7.1-7.3,12.9-0.3,12.9h12v-2.4h9.4
	v-1.5h4.4v1.5h4.7l1.5,2.4h7.6l1.8-2.1h15.9c-3.2,5.9-5.6,13.1-15,13.5c-6.5,0.3-81.1,0-81.1,0l33.5-38.2L23.8,49.9z"/>
<path class="st0" d="M250.8,64h0.6c0.3,0,0.6,0.1,0.6,0.4c0,0.5-0.4,0.5-0.8,0.5h-0.5V64z M250.4,66.5h0.4v-1.2h0.5l0.8,1.2h0.5
	l-0.8-1.3c0.4,0,0.8-0.3,0.8-0.8c0-0.5-0.3-0.8-1-0.8h-1.1V66.5z M249.3,65.1c0-1.2,0.9-2.1,2-2.1c1.1,0,2,0.9,2,2.1
	c0,1.2-0.9,2.1-2,2.1C250.2,67.2,249.3,66.3,249.3,65.1 M248.9,65.1c0,1.4,1.1,2.5,2.5,2.5c1.3,0,2.4-1.1,2.4-2.5
	c0-1.4-1.1-2.4-2.4-2.4C250,62.7,248.9,63.7,248.9,65.1"/>
<path class="st1" d="M236.7,85.5v14.2h8.1v-2.3h-5.3v-3.8h4.8v-2.3h-4.8v-3.3h5.1v-2.3H236.7z M225.7,99.7h2.9v-6h1.5
	c1.1,0,1.6,0.7,1.7,1.8l0.1,2.7c0,0.6,0.1,1.1,0.4,1.5h3.1v-0.1c-0.5-0.3-0.6-1.1-0.6-2.5c0-3-0.3-4.1-2.3-4.3v0
	c1.6-0.3,2.4-1.6,2.4-3.5c0-2.4-1.4-3.6-3.8-3.6h-5.3V99.7z M228.5,87.6h1.3c1.3,0,2,0.7,2,2c0,1.5-0.8,2.1-2.1,2.1h-1.2V87.6z
	 M217.2,92.6c0-3.8,0.3-5.3,2-5.3c1.7,0,2,1.5,2,5.3c0,3.8-0.3,5.3-2,5.3C217.5,97.9,217.2,96.4,217.2,92.6 M214.4,92.6
	c0,4.3,0.5,7.4,4.8,7.4c4.3,0,4.8-3.1,4.8-7.4s-0.5-7.4-4.8-7.4C214.9,85.3,214.4,88.3,214.4,92.6 M200,99.7h2.6V88.4h0l2.5,11.3
	h2.2l2.5-11.3h0v11.3h2.6V85.5h-4.2l-2,10h0l-2-10H200V99.7z M193.2,89.7c0-2.9-1.3-4.5-4.4-4.5c-3.6,0-4.8,2.4-4.8,7.2
	c0,4.9,0.7,7.5,4.2,7.5c1.3,0,2.3-0.5,3-1.6h0v1.3h2.1v-7.6h-4.6v2.1h1.9v1.4c0,1.5-1.1,2.3-1.8,2.3c-1.6,0-2-2.1-2-5.6
	c0-3.5,0.6-5,1.9-5c1.1,0,1.6,1.3,1.6,2.4H193.2z M172.8,85.5v14.2h2.6v-9.9h0l3.5,9.9h3.3V85.5h-2.6v9.7h0l-3.5-9.7H172.8z
	 M170.7,85.5h-2.9v14.2h2.9V85.5z M156.7,99.7h2.9v-6h1.5c1.1,0,1.6,0.7,1.7,1.8l0.1,2.7c0,0.6,0.1,1.1,0.4,1.5h3.1v-0.1
	c-0.5-0.3-0.6-1.1-0.6-2.5c0-3-0.3-4.1-2.3-4.3v0c1.6-0.3,2.4-1.6,2.4-3.5c0-2.4-1.4-3.6-3.8-3.6h-5.3V99.7z M159.5,87.6h1.3
	c1.3,0,2,0.7,2,2c0,1.5-0.8,2.1-2.1,2.1h-1.2V87.6z M147.1,85.5v14.2h8.1v-2.3H150v-3.8h4.8v-2.3H150v-3.3h5.1v-2.3H147.1z
	 M135.9,85.5l3.3,14.2h3.7l3.3-14.2h-3L141,96H141l-2-10.5H135.9z M134.7,85.5h-2.9v14.2h2.9V85.5z M130.5,99.7v-2.3h-5.1V85.5h-2.9
	v14.2H130.5z M113,85.5v14.2h8.1v-2.3h-5.3v-3.8h4.8v-2.3h-4.8v-3.3h5.1v-2.3H113z M104.6,87.6h1.2c2.2,0,2.4,1.6,2.4,4.9
	c0,3.8-0.4,5.1-2.4,5.1h-1.3V87.6z M101.8,99.7h4.5c3.8,0,4.9-2.3,4.9-7.3c0-4.2-0.7-6.9-4.7-6.9h-4.7V99.7z"/>
<path class="st1" d="M253.3,85.3h-0.6l-0.7,2.5l-0.7-2.5h-0.6v3.3h0.4v-2.7h0l0.8,2.7h0.3l0.8-2.7h0v2.7h0.4V85.3z M250.2,85.3h-1.9
	v0.4h0.8v2.8h0.4v-2.8h0.8V85.3z"/>
</svg>
