<?xml version="1.0" encoding="utf-8"?>
<!-- Generator: Adobe Illustrator 22.1.0, SVG Export Plug-In . SVG Version: 6.00 Build 0)  -->
<svg version="1.1" id="Слой_1" xmlns="http://www.w3.org/2000/svg" xmlns:xlink="http://www.w3.org/1999/xlink" x="0px" y="0px"
	 width="42px" height="72.3px" viewBox="0 0 42 72.3" style="enable-background:new 0 0 42 72.3;" xml:space="preserve">
<style type="text/css">
	.st0{fill:#E18E19;}
</style>
<title>Asset 1</title>
<g id="Layer_2">
	<g id="Layer_1-2">
		<path class="st0" d="M0,35.3c-0.1-4.8,0.2-9.7,0.7-14.5c0.3-3.3,1.2-6.5,2.5-9.6c1.1-2.4,2.6-4.6,4.6-6.4c2.2-1.9,4.6-3.5,7.1-4.8
			v6.6c-3.4,2.3-5.7,5.8-6.6,9.7c-1.1,4.3-1.6,10.6-1.6,19v37H0V35.3z M27.2,35.3c-0.1-4.8,0.2-9.7,0.7-14.5
			c0.3-3.3,1.2-6.5,2.5-9.6c1.1-2.4,2.6-4.6,4.6-6.4C37.1,2.9,39.5,1.3,42,0v6.6c-3.4,2.3-5.7,5.8-6.6,9.7c-1.1,4.3-1.6,10.6-1.6,19
			v37h-6.6L27.2,35.3z"/>
	</g>
</g>
</svg>
