<?xml version="1.0" encoding="utf-8"?>
<!-- Generator: Adobe Illustrator 22.1.0, SVG Export Plug-In . SVG Version: 6.00 Build 0)  -->
<svg version="1.1" id="Слой_1" xmlns="http://www.w3.org/2000/svg" xmlns:xlink="http://www.w3.org/1999/xlink" x="0px" y="0px"
	 width="44.7px" height="44.7px" viewBox="0 0 44.7 44.7" style="enable-background:new 0 0 44.7 44.7;" xml:space="preserve">
<title>Asset 1</title>
<g id="Layer_2">
	<g id="Layer_1-2">
		<path d="M22.4,0C10,0,0,10,0,22.4s10,22.4,22.4,22.4s22.4-10,22.4-22.4l0,0C44.7,10,34.7,0,22.4,0z M22.4,42.7
			C11.1,42.7,2,33.6,2,22.4S11.1,2,22.4,2s20.4,9.1,20.4,20.4l0,0C42.7,33.6,33.6,42.7,22.4,42.7z"/>
		<path d="M19.8,15.1c0-1.5,0.9-2.7,2-2.7s2,1.3,2,2.7V17h2v-1.9c0-2.6-1.8-4.7-4-4.7s-4,2.1-4,4.7v5.7h-4.9v11.9h17.9V20.8h-11
			L19.8,15.1z M28.8,30.7H14.8v-7.9h13.9L28.8,30.7z"/>
	</g>
</g>
</svg>
